<svg xmlns="http://www.w3.org/2000/svg" viewBox="0 0 184.92 205.66">
    <defs>
        <style>.cls-1{fill:#ffdb54}</style>
    </defs>
    <g id="Слой_2" data-name="Слой 2">
        <g id="Слой_1-2" data-name="Слой 1">
            <path class="cls-1"
                  d="M0 57.76V.47A.47.47 0 0 1 .47 0H14.4a.47.47 0 0 1 .47.47v20.94a.47.47 0 0 0 .47.47h18.1a.47.47 0 0 0 .47-.47V.47a.47.47 0 0 1 .48-.47h13.93a.47.47 0 0 1 .47.47v57.29a.47.47 0 0 1-.47.47H34.39a.47.47 0 0 1-.47-.47V35.41a.47.47 0 0 0-.47-.47h-18.1a.47.47 0 0 0-.47.47v22.35a.47.47 0 0 1-.47.47H.47a.47.47 0 0 1-.47-.47m92.46.48H81.21a.47.47 0 0 1-.47-.47V55a.47.47 0 0 0-.84-.29c-1.68 2.16-4.68 5-11.28 5-14.8 0-16.29-12-16.29-17.86V15a.47.47 0 0 1 .47-.47h12.12a.47.47 0 0 1 .47.47v23.4c0 4.8 1 9 6.93 9 6.53 0 7.55-4.64 7.55-9.13V15a.47.47 0 0 1 .47-.47h12.12a.47.47 0 0 1 .47.47v42.76a.47.47 0 0 1-.47.47m9.65-33.76H96.6a.47.47 0 0 1-.47-.47v-9a.47.47 0 0 1 .47-.47h5.51a.47.47 0 0 0 .47-.47V.47a.47.47 0 0 1 .47-.47h12.12a.47.47 0 0 1 .47.47v13.62a.47.47 0 0 0 .47.47h5.35a.47.47 0 0 1 .47.47v9a.47.47 0 0 1-.47.47h-5.35a.47.47 0 0 0-.47.47v32.79a.47.47 0 0 1-.47.47h-12.11a.47.47 0 0 1-.47-.47V24.95a.47.47 0 0 0-.47-.47M.47 73h30.85a.47.47 0 0 1 .47.47v12.17a.47.47 0 0 1-.47.47h-16a.47.47 0 0 0-.47.47v9a.47.47 0 0 0 .47.47h15.37a.47.47 0 0 1 .47.47v12.12a.47.47 0 0 1-.47.47H15.35a.47.47 0 0 0-.47.47v21.25a.47.47 0 0 1-.47.47H.47a.47.47 0 0 1-.47-.47V73.52A.47.47 0 0 1 .47 73m34.05 36.32c0-10.62 7.63-23.14 23.53-23.14S81.58 98.7 81.58 109.4 74 132.62 58.05 132.62s-23.53-12.51-23.53-23.22zm13.06.16a10.62 10.62 0 0 0 10.47 10.94c5.67 0 10.47-4.64 10.47-11s-4.8-11-10.47-11-10.47 4.64-10.47 11zM85.49 87.6h11.33a.47.47 0 0 1 .47.47v2.65a.47.47 0 0 0 .86.26c1.42-2.19 4-4.74 9.75-4.87a.47.47 0 0 1 .48.47v12.2a.47.47 0 0 1-.47.47c-6.69 0-9.84 2.44-9.84 8.58v23a.47.47 0 0 1-.47.47H85.49a.47.47 0 0 1-.47-.47V88.08a.47.47 0 0 1 .47-.47m32.06 9.91H112a.47.47 0 0 1-.47-.47v-9a.47.47 0 0 1 .47-.47h5.51a.47.47 0 0 0 .47-.47V73.52a.47.47 0 0 1 .47-.47h12.12a.47.47 0 0 1 .47.47v13.61a.47.47 0 0 0 .47.47h5.35a.47.47 0 0 1 .47.47v9a.47.47 0 0 1-.47.47h-5.35a.47.47 0 0 0-.47.47v32.82a.47.47 0 0 1-.47.47h-12.08a.47.47 0 0 1-.47-.47V98a.47.47 0 0 0-.47-.47m38.71 31.37l-15.89-40.65a.47.47 0 0 1 .44-.64h12.9a.47.47 0 0 1 .45.32l8.32 23.71a.47.47 0 0 0 .89 0l7.8-23.7a.47.47 0 0 1 .45-.32h12.83a.47.47 0 0 1 .44.64l-21.52 57.29a.47.47 0 0 1-.44.31h-12.82a.47.47 0 0 1-.44-.65l6.58-15.93a.48.48 0 0 0 0-.35m-145 30.22H.71a.47.47 0 0 1-.47-.47v-12.12a.47.47 0 0 1 .47-.47h36.83a.47.47 0 0 1 .47.47v12.12a.47.47 0 0 1-.47.47H27.07a.47.47 0 0 0-.47.47v44.23a.47.47 0 0 1-.47.47H12.2a.47.47 0 0 1-.47-.47v-44.22a.47.47 0 0 0-.47-.47"/>
            <path class="cls-1"
                  d="M35 160.65h12.51a.47.47 0 0 1 .49.35l6.16 25a.47.47 0 0 0 .92 0l6.6-25a.47.47 0 0 1 .46-.35h10.25a.47.47 0 0 1 .46.35l6.82 25a.47.47 0 0 0 .92 0l6-25a.47.47 0 0 1 .46-.36H99.5a.47.47 0 0 1 .45.61L86.86 204a.47.47 0 0 1-.45.33H75a.47.47 0 0 1-.46-.35l-6.92-26.16a.47.47 0 0 0-.91 0L59.93 204a.47.47 0 0 1-.46.35h-11.4a.47.47 0 0 1-.45-.33l-13.09-42.76a.47.47 0 0 1 .45-.61m62.97 21.72c0-10.62 7.63-23.14 23.53-23.14S145 171.75 145 182.45s-7.63 23.22-23.53 23.22-23.53-12.51-23.53-23.22zm13.06.16a10.62 10.62 0 0 0 10.47 10.94c5.67 0 10.47-4.64 10.47-11s-4.8-11-10.47-11-10.47 4.64-10.47 11z"/>
            <path d="M152.86 204.33h-.24a6.69 6.69 0 1 1 0-13.38h.24a6.69 6.69 0 1 1 0 13.38" fill="#54af47"/>
        </g>
    </g>
</svg>
